<svg width="1122" height="179" viewBox="0 0 1122 179" fill="none" xmlns="http://www.w3.org/2000/svg">
<path d="M28.0996 61.2383H26.0996V63.2383H28.0996V61.2383ZM78.373 61.2383H80.373V59.2383H78.373V61.2383ZM78.373 81.1895V83.1895H80.373V81.1895H78.373ZM28.0996 81.1895V79.1895H26.0996V81.1895H28.0996ZM28.0996 116.697H26.0996V118.697H28.0996V116.697ZM85.5801 116.697H87.5801V114.697H85.5801V116.697ZM85.5801 137V139H87.5801V137H85.5801ZM0.589844 137H-1.41016V139H0.589844V137ZM0.589844 9.38281V7.38281H-1.41016V9.38281H0.589844ZM83.7344 9.38281H85.7344V7.38281H83.7344V9.38281ZM83.7344 29.6855V31.6855H85.7344V29.6855H83.7344ZM28.0996 29.6855V27.6855H26.0996V29.6855H28.0996ZM28.0996 63.2383H78.373V59.2383H28.0996V63.2383ZM76.373 61.2383V81.1895H80.373V61.2383H76.373ZM78.373 79.1895H28.0996V83.1895H78.373V79.1895ZM26.0996 81.1895V116.697H30.0996V81.1895H26.0996ZM28.0996 118.697H85.5801V114.697H28.0996V118.697ZM83.5801 116.697V137H87.5801V116.697H83.5801ZM85.5801 135H0.589844V139H85.5801V135ZM2.58984 137V9.38281H-1.41016V137H2.58984ZM0.589844 11.3828H83.7344V7.38281H0.589844V11.3828ZM81.7344 9.38281V29.6855H85.7344V9.38281H81.7344ZM83.7344 27.6855H28.0996V31.6855H83.7344V27.6855ZM26.0996 29.6855V61.2383H30.0996V29.6855H26.0996ZM106.572 137L104.914 135.882L102.826 138.977L106.56 139L106.572 137ZM139.355 88.3965L141.013 89.5149L141.76 88.4073L141.023 87.293L139.355 88.3965ZM109.121 42.6934V40.6934H105.4L107.453 43.7968L109.121 42.6934ZM136.982 42.6934L138.665 41.6128L138.075 40.6934H136.982V42.6934ZM156.845 73.6309L155.162 74.7114L156.849 77.3385L158.53 74.708L156.845 73.6309ZM176.621 42.6934V40.6934H175.525L174.936 41.6162L176.621 42.6934ZM204.482 42.6934L206.15 43.7968L208.203 40.6934H204.482V42.6934ZM174.248 88.3965L172.58 87.293L171.842 88.4073L172.59 89.5149L174.248 88.3965ZM207.031 137L207.043 139L210.777 138.977L208.689 135.882L207.031 137ZM178.027 137.176L176.332 138.237L176.924 139.183L178.039 139.176L178.027 137.176ZM156.845 103.338L158.541 102.277L156.849 99.5741L155.152 102.274L156.845 103.338ZM135.576 137.176L135.564 139.176L136.677 139.182L137.269 138.24L135.576 137.176ZM108.23 138.118L141.013 89.5149L137.697 87.2781L104.914 135.882L108.23 138.118ZM141.023 87.293L110.789 41.5899L107.453 43.7968L137.687 89.5L141.023 87.293ZM109.121 44.6934H136.982V40.6934H109.121V44.6934ZM135.299 43.7739L155.162 74.7114L158.528 72.5503L138.665 41.6128L135.299 43.7739ZM158.53 74.708L178.306 43.7705L174.936 41.6162L155.16 72.5537L158.53 74.708ZM176.621 44.6934H204.482V40.6934H176.621V44.6934ZM202.814 41.5899L172.58 87.293L175.916 89.5L206.15 43.7968L202.814 41.5899ZM172.59 89.5149L205.373 138.118L208.689 135.882L175.906 87.2781L172.59 89.5149ZM207.019 135L178.015 135.176L178.039 139.176L207.043 139L207.019 135ZM179.722 136.115L158.541 102.277L155.15 104.399L176.332 138.237L179.722 136.115ZM155.152 102.274L133.883 136.111L137.269 138.24L158.539 104.402L155.152 102.274ZM135.588 135.176L106.584 135L106.56 139L135.564 139.176L135.588 135.176ZM305.279 132.43L306.206 134.202L306.216 134.196L305.279 132.43ZM262.388 136.473L262.835 134.523L260.388 133.962V136.473H262.388ZM262.388 178.221V180.221H264.388V178.221H262.388ZM235.405 178.221H233.405V180.221H235.405V178.221ZM235.405 42.6934V40.6934H233.405V42.6934H235.405ZM256.06 42.6934L257.935 41.9992L257.452 40.6934H256.06V42.6934ZM260.191 53.8555L258.315 54.5496L259.45 57.6171L261.663 55.2087L260.191 53.8555ZM272.671 44.4512L273.486 46.2778L273.497 46.2727L272.671 44.4512ZM295.347 112.127L293.81 110.847L293.802 110.857L295.347 112.127ZM282.163 60.5352L282.163 62.5352L282.172 62.5351L282.163 60.5352ZM269.771 64.4023L268.575 62.7991L268.568 62.804L268.562 62.809L269.771 64.4023ZM262.388 75.3008L260.486 74.6826L260.388 74.9839V75.3008H262.388ZM262.388 118.104H260.388V119.684L261.926 120.049L262.388 118.104ZM287.788 43.4629C300.412 43.4629 309.988 47.3494 316.799 54.9285L319.774 52.2551C312.053 43.6623 301.297 39.4629 287.788 39.4629V43.4629ZM316.799 54.9285C323.63 62.5306 327.185 73.4722 327.185 88.0449H331.185C331.185 72.8521 327.474 60.8249 319.774 52.2551L316.799 54.9285ZM327.185 88.0449C327.185 98.2075 325.159 106.856 321.192 114.063L324.697 115.992C329.05 108.082 331.185 98.7418 331.185 88.0449H327.185ZM321.192 114.063C317.22 121.281 311.614 126.803 304.341 130.663L306.216 134.196C314.177 129.971 320.349 123.891 324.697 115.992L321.192 114.063ZM304.352 130.657C297.075 134.464 288.383 136.406 278.208 136.406V140.406C288.893 140.406 298.247 138.365 306.206 134.202L304.352 130.657ZM278.208 136.406C273.46 136.406 268.338 135.784 262.835 134.523L261.941 138.422C267.688 139.739 273.113 140.406 278.208 140.406V136.406ZM260.388 136.473V178.221H264.388V136.473H260.388ZM262.388 176.221H235.405V180.221H262.388V176.221ZM237.405 178.221V42.6934H233.405V178.221H237.405ZM235.405 44.6934H256.06V40.6934H235.405V44.6934ZM254.184 43.3875L258.315 54.5496L262.066 53.1613L257.935 41.9992L254.184 43.3875ZM261.663 55.2087C265.506 51.0269 269.451 48.0769 273.486 46.2778L271.857 42.6246C267.219 44.6927 262.844 48.0121 258.718 52.5022L261.663 55.2087ZM273.497 46.2727C277.59 44.4172 282.339 43.4629 287.788 43.4629V39.4629C281.87 39.4629 276.541 40.5007 271.845 42.6296L273.497 46.2727ZM276.626 122.037C285.241 122.037 292.102 119.223 296.892 113.397L293.802 110.857C289.92 115.578 284.3 118.037 276.626 118.037V122.037ZM296.883 113.407C301.693 107.636 303.939 99.3675 303.939 88.9238H299.939C299.939 98.8707 297.79 106.071 293.81 110.847L296.883 113.407ZM303.939 88.9238C303.939 79.2626 302.273 71.666 298.636 66.4452C294.906 61.0906 289.294 58.5034 282.154 58.5352L282.172 62.5351C288.216 62.5083 292.492 64.6232 295.354 68.7316C298.309 72.9736 299.939 79.6007 299.939 88.9238H303.939ZM282.163 58.5352C276.979 58.5352 272.417 59.9341 268.575 62.7991L270.966 66.0056C274.039 63.7143 277.738 62.5352 282.163 62.5352V58.5352ZM268.562 62.809C264.79 65.6706 262.115 69.6691 260.486 74.6826L264.29 75.919C265.707 71.5574 267.955 68.2903 270.979 65.9957L268.562 62.809ZM260.388 75.3008V118.104H264.388V75.3008H260.388ZM261.926 120.049C265.397 120.873 268.085 121.42 269.946 121.668L270.474 117.703C268.82 117.482 266.292 116.974 262.85 116.158L261.926 120.049ZM269.946 121.668C271.819 121.918 274.052 122.037 276.626 122.037V118.037C274.162 118.037 272.117 117.922 270.474 117.703L269.946 121.668ZM381.378 94.9004V92.9004H379.195L379.385 95.0749L381.378 94.9004ZM420.313 117.4L420.747 119.353L420.759 119.35L420.77 119.348L420.313 117.4ZM436.046 112.127L437.911 111.404L437.169 109.489L435.274 110.282L436.046 112.127ZM442.55 128.914L443.39 130.729L445.092 129.941L444.415 128.192L442.55 128.914ZM402.911 138.758L402.921 136.758H402.911V138.758ZM367.579 53.7676L369.013 55.162L369.017 55.1571L367.579 53.7676ZM444.835 94.9004V96.9004H446.835V94.9004H444.835ZM420.05 79.2559V81.2559H422.169L422.046 79.14L420.05 79.2559ZM388.585 64.4902L389.961 65.9415L389.962 65.9408L388.585 64.4902ZM381.905 79.2559L379.93 78.9412L379.561 81.2559H381.905V79.2559ZM379.385 95.0749C380.114 103.391 382.644 109.936 387.235 114.396C391.844 118.875 398.252 120.982 406.163 120.982V116.982C398.957 116.982 393.675 115.076 390.022 111.527C386.351 107.961 384.048 102.465 383.37 94.7259L379.385 95.0749ZM406.163 120.982C411.002 120.982 415.864 120.438 420.747 119.353L419.879 115.448C415.27 116.472 410.699 116.982 406.163 116.982V120.982ZM420.77 119.348C425.649 118.203 431 116.406 436.818 113.972L435.274 110.282C429.607 112.653 424.47 114.371 419.857 115.453L420.77 119.348ZM434.181 112.849L440.685 129.637L444.415 128.192L437.911 111.404L434.181 112.849ZM441.709 127.099C427.602 133.632 414.682 136.815 402.921 136.758L402.901 140.758C415.398 140.818 428.903 137.438 443.39 130.729L441.709 127.099ZM402.911 136.758C388.436 136.758 377.309 132.555 369.271 124.35L366.414 127.15C375.368 136.289 387.62 140.758 402.911 140.758V136.758ZM369.271 124.35C361.233 116.146 357.098 104.661 357.098 89.627H353.098C353.098 105.413 357.46 118.01 366.414 127.15L369.271 124.35ZM357.098 89.627C357.098 74.6408 361.151 63.2451 369.013 55.162L366.145 52.3731C357.366 61.3994 353.098 73.91 353.098 89.627H357.098ZM369.017 55.1571C376.871 47.0274 387.956 42.8477 402.559 42.8477V38.8477C387.162 38.8477 374.928 43.2812 366.14 52.378L369.017 55.1571ZM402.559 42.8477C416.274 42.8477 426.213 46.7209 432.766 54.1462C439.362 61.6191 442.835 73.0323 442.835 88.748H446.835C446.835 72.5302 443.262 59.9932 435.765 51.4993C428.227 42.9578 417.029 38.8477 402.559 38.8477V42.8477ZM442.835 88.748V94.9004H446.835V88.748H442.835ZM444.835 92.9004H381.378V96.9004H444.835V92.9004ZM422.046 79.14C421.652 72.3463 419.948 66.9177 416.652 63.1694C413.3 59.358 408.555 57.5684 402.735 57.5684V61.5684C407.696 61.5684 411.228 63.06 413.648 65.811C416.123 68.6253 417.686 73.0404 418.053 79.3717L422.046 79.14ZM402.735 57.5684C396.382 57.5684 391.125 59.3219 387.208 63.0396L389.962 65.9408C392.959 63.0961 397.135 61.5684 402.735 61.5684V57.5684ZM387.209 63.039C383.379 66.6704 381.025 72.0676 379.93 78.9412L383.88 79.5705C384.895 73.2019 386.994 68.7553 389.961 65.9415L387.209 63.039ZM381.905 81.2559H420.05V77.2559H381.905V81.2559ZM502.213 55.7891L500.272 56.2711L501.428 60.9269L503.922 56.8286L502.213 55.7891ZM532.887 41.6387L532.523 43.6052L532.563 43.6127L532.604 43.6186L532.887 41.6387ZM539.127 43.0449L541.111 43.3039L541.335 41.5846L539.665 41.1185L539.127 43.0449ZM536.051 66.5996L535.373 68.4811L537.712 69.3244L538.034 66.8586L536.051 66.5996ZM522.692 63.9629V65.9629H522.707L522.722 65.9627L522.692 63.9629ZM511.969 66.248L512.864 68.0369L512.878 68.0298L512.892 68.0225L511.969 66.248ZM504.586 73.2793L502.885 72.2276L502.586 72.711V73.2793H504.586ZM504.586 137V139H506.586V137H504.586ZM477.516 137H475.516V139H477.516V137ZM477.516 42.6934V40.6934H475.516V42.6934H477.516ZM498.961 42.6934L500.902 42.2114L500.525 40.6934H498.961V42.6934ZM503.922 56.8286C509.507 47.6496 517.176 43.1992 527.086 43.1992V39.1992C515.669 39.1992 506.756 44.4754 500.505 54.7495L503.922 56.8286ZM527.086 43.1992C529.296 43.1992 531.099 43.3416 532.523 43.6052L533.251 39.6721C531.511 39.3498 529.447 39.1992 527.086 39.1992V43.1992ZM532.604 43.6186C534.125 43.8358 536.112 44.2799 538.59 44.9713L539.665 41.1185C537.104 40.4037 534.931 39.9103 533.17 39.6588L532.604 43.6186ZM537.144 42.7859L534.068 66.3406L538.034 66.8586L541.111 43.3039L537.144 42.7859ZM536.729 64.7181C531.544 62.8491 526.843 61.8997 522.661 61.9631L522.722 65.9627C526.275 65.9088 530.48 66.7173 535.373 68.4811L536.729 64.7181ZM522.692 61.9629C518.239 61.9629 514.329 62.7666 511.046 64.4736L512.892 68.0225C515.468 66.6827 518.708 65.9629 522.692 65.9629V61.9629ZM511.075 64.4592C507.764 66.1148 505.041 68.7395 502.885 72.2276L506.288 74.3309C508.116 71.3737 510.315 69.311 512.864 68.0369L511.075 64.4592ZM502.586 73.2793V137H506.586V73.2793H502.586ZM504.586 135H477.516V139H504.586V135ZM479.516 137V42.6934H475.516V137H479.516ZM477.516 44.6934H498.961V40.6934H477.516V44.6934ZM497.02 43.1754L500.272 56.2711L504.154 55.3071L500.902 42.2114L497.02 43.1754ZM567.062 4.72461V2.72461H565.062V4.72461H567.062ZM594.045 4.72461H596.045V2.72461H594.045V4.72461ZM594.045 29.334V31.334H596.045V29.334H594.045ZM567.062 29.334H565.062V31.334H567.062V29.334ZM567.062 43.748V41.748H565.062V43.748H567.062ZM594.045 43.748H596.045V41.748H594.045V43.748ZM594.045 137V139H596.045V137H594.045ZM567.062 137H565.062V139H567.062V137ZM567.062 6.72461H594.045V2.72461H567.062V6.72461ZM592.045 4.72461V29.334H596.045V4.72461H592.045ZM594.045 27.334H567.062V31.334H594.045V27.334ZM569.062 29.334V4.72461H565.062V29.334H569.062ZM567.062 45.748H594.045V41.748H567.062V45.748ZM592.045 43.748V137H596.045V43.748H592.045ZM594.045 135H567.062V139H594.045V135ZM569.062 137V43.748H565.062V137H569.062ZM677 0.59375L678.34 -0.890755L677.769 -1.40625H677V0.59375ZM705.037 25.9062L706.587 27.1703L707.789 25.6963L706.377 24.4217L705.037 25.9062ZM697.654 34.959L696.547 36.625L698.058 37.6282L699.204 36.223L697.654 34.959ZM674.099 19.3145L675.206 17.6484L674.095 16.9108L672.987 17.6523L674.099 19.3145ZM650.72 34.959L649.17 36.223L650.32 37.6331L651.833 36.6212L650.72 34.959ZM643.338 25.9062L641.997 24.4217L640.586 25.6963L641.788 27.1703L643.338 25.9062ZM671.375 0.59375V-1.40625H670.605L670.034 -0.890755L671.375 0.59375ZM653.621 94.9004V92.9004H651.438L651.628 95.0749L653.621 94.9004ZM692.556 117.4L692.99 119.353L693.002 119.35L693.013 119.348L692.556 117.4ZM708.289 112.127L710.154 111.404L709.412 109.489L707.517 110.282L708.289 112.127ZM714.793 128.914L715.633 130.729L717.335 129.941L716.658 128.192L714.793 128.914ZM675.154 138.758L675.164 136.758H675.154V138.758ZM639.822 53.7676L641.256 55.162L641.26 55.1571L639.822 53.7676ZM717.078 94.9004V96.9004H719.078V94.9004H717.078ZM692.293 79.2559V81.2559H694.412L694.289 79.14L692.293 79.2559ZM660.828 64.4902L662.204 65.9415L662.205 65.9408L660.828 64.4902ZM654.148 79.2559L652.173 78.9412L651.804 81.2559H654.148V79.2559ZM675.659 2.07825L703.696 27.3908L706.377 24.4217L678.34 -0.890755L675.659 2.07825ZM703.487 24.6422L696.104 33.695L699.204 36.223L706.587 27.1703L703.487 24.6422ZM698.76 33.293L675.206 17.6484L672.993 20.9805L696.547 36.625L698.76 33.293ZM672.987 17.6523L649.608 33.2968L651.833 36.6212L675.212 20.9766L672.987 17.6523ZM652.27 33.695L644.887 24.6422L641.788 27.1703L649.17 36.223L652.27 33.695ZM644.678 27.3908L672.715 2.07825L670.034 -0.890755L641.997 24.4217L644.678 27.3908ZM671.375 2.59375H677V-1.40625H671.375V2.59375ZM651.628 95.0749C652.357 103.391 654.887 109.936 659.478 114.396C664.087 118.875 670.495 120.982 678.406 120.982V116.982C671.2 116.982 665.918 115.076 662.265 111.527C658.594 107.961 656.291 102.465 655.613 94.7259L651.628 95.0749ZM678.406 120.982C683.245 120.982 688.107 120.438 692.99 119.353L692.122 115.448C687.513 116.472 682.942 116.982 678.406 116.982V120.982ZM693.013 119.348C697.892 118.203 703.243 116.406 709.061 113.972L707.517 110.282C701.85 112.653 696.713 114.371 692.1 115.453L693.013 119.348ZM706.424 112.849L712.928 129.637L716.658 128.192L710.154 111.404L706.424 112.849ZM713.952 127.099C699.845 133.632 686.925 136.815 675.164 136.758L675.144 140.758C687.641 140.818 701.146 137.438 715.633 130.729L713.952 127.099ZM675.154 136.758C660.679 136.758 649.552 132.555 641.514 124.35L638.657 127.15C647.611 136.289 659.863 140.758 675.154 140.758V136.758ZM641.514 124.35C633.476 116.146 629.341 104.661 629.341 89.627H625.341C625.341 105.413 629.703 118.01 638.657 127.15L641.514 124.35ZM629.341 89.627C629.341 74.6408 633.394 63.2451 641.256 55.162L638.388 52.3731C629.609 61.3994 625.341 73.91 625.341 89.627H629.341ZM641.26 55.1571C649.114 47.0274 660.199 42.8477 674.802 42.8477V38.8477C659.405 38.8477 647.171 43.2812 638.383 52.378L641.26 55.1571ZM674.802 42.8477C688.517 42.8477 698.456 46.7209 705.009 54.1462C711.605 61.6191 715.078 73.0323 715.078 88.748H719.078C719.078 72.5302 715.505 59.9932 708.008 51.4993C700.47 42.9578 689.272 38.8477 674.802 38.8477V42.8477ZM715.078 88.748V94.9004H719.078V88.748H715.078ZM717.078 92.9004H653.621V96.9004H717.078V92.9004ZM694.289 79.14C693.895 72.3463 692.191 66.9177 688.895 63.1694C685.543 59.358 680.798 57.5684 674.978 57.5684V61.5684C679.939 61.5684 683.471 63.06 685.891 65.811C688.366 68.6253 689.929 73.0404 690.296 79.3717L694.289 79.14ZM674.978 57.5684C668.625 57.5684 663.368 59.3219 659.451 63.0396L662.205 65.9408C665.202 63.0961 669.378 61.5684 674.978 61.5684V57.5684ZM659.452 63.039C655.622 66.6704 653.268 72.0676 652.173 78.9412L656.123 79.5705C657.138 73.2019 659.237 68.7553 662.204 65.9415L659.452 63.039ZM654.148 81.2559H692.293V77.2559H654.148V81.2559ZM775.159 55.7891L773.207 56.2215L774.073 60.1352L776.679 57.0891L775.159 55.7891ZM830.706 49.9004L829.234 51.2539L829.241 51.2613L830.706 49.9004ZM838.704 137V139H840.704V137H838.704ZM811.722 137H809.722V139H811.722V137ZM785.882 63.1719L786.799 64.9495L786.81 64.9439L786.82 64.9381L785.882 63.1719ZM776.829 71.082L775.179 69.9527L774.829 70.4633V71.082H776.829ZM776.829 137V139H778.829V137H776.829ZM749.759 137H747.759V139H749.759V137ZM749.759 42.6934V40.6934H747.759V42.6934H749.759ZM772.259 42.6934L774.212 42.2609L773.865 40.6934H772.259V42.6934ZM776.679 57.0891C784.595 47.8351 794.954 43.1992 807.943 43.1992V39.1992C793.861 39.1992 782.364 44.2899 773.64 54.489L776.679 57.0891ZM807.943 43.1992C817.376 43.1992 824.371 45.9636 829.234 51.2539L832.179 48.5469C826.377 42.2356 818.197 39.1992 807.943 39.1992V43.1992ZM829.241 51.2613C834.125 56.5211 836.704 64.1141 836.704 74.334H840.704C840.704 63.4601 837.952 54.764 832.172 48.5395L829.241 51.2613ZM836.704 74.334V137H840.704V74.334H836.704ZM838.704 135H811.722V139H838.704V135ZM813.722 137V75.8281H809.722V137H813.722ZM813.722 75.8281C813.722 70.1396 812.617 65.5572 809.971 62.5529L806.969 65.1971C808.659 67.1147 809.722 70.501 809.722 75.8281H813.722ZM809.971 62.5529C807.274 59.4921 803.118 58.1836 798.011 58.1836V62.1836C802.513 62.1836 805.33 63.336 806.969 65.1971L809.971 62.5529ZM798.011 58.1836C793.355 58.1836 788.989 59.2566 784.944 61.4056L786.82 64.9381C790.275 63.1028 793.995 62.1836 798.011 62.1836V58.1836ZM784.965 61.3943C780.934 63.4731 777.659 66.3274 775.179 69.9527L778.48 72.2114C780.57 69.157 783.33 66.7379 786.799 64.9495L784.965 61.3943ZM774.829 71.082V137H778.829V71.082H774.829ZM776.829 135H749.759V139H776.829V135ZM751.759 137V42.6934H747.759V137H751.759ZM749.759 44.6934H772.259V40.6934H749.759V44.6934ZM770.306 43.1258L773.207 56.2215L777.112 55.3566L774.212 42.2609L770.306 43.1258ZM945.829 47.8789L947.725 48.5142L948.27 46.8893L946.747 46.1023L945.829 47.8789ZM939.852 65.7207L938.926 67.493L941.004 68.5798L941.749 66.356L939.852 65.7207ZM903.202 68.2695L901.677 66.9752L901.668 66.9857L903.202 68.2695ZM903.378 110.809L901.869 112.122L901.878 112.132L903.378 110.809ZM942.05 113.973L943.997 113.516L943.445 111.162L941.236 112.146L942.05 113.973ZM946.356 132.342L947.171 134.168L948.681 133.495L948.303 131.885L946.356 132.342ZM882.46 53.9434L883.869 55.3625L883.874 55.3576L882.46 53.9434ZM918.495 43.1992C927.782 43.1992 936.578 45.3478 944.91 49.6555L946.747 46.1023C937.853 41.5038 928.427 39.1992 918.495 39.1992V43.1992ZM943.932 47.2437L937.956 65.0854L941.749 66.356L947.725 48.5142L943.932 47.2437ZM940.779 63.9484C934.165 60.4895 927.667 58.7109 921.307 58.7109V62.7109C926.901 62.7109 932.766 64.2722 938.926 67.493L940.779 63.9484ZM921.307 58.7109C913.044 58.7109 906.404 61.4069 901.677 66.9753L904.727 69.5638C908.555 65.054 913.985 62.7109 921.307 62.7109V58.7109ZM901.668 66.9857C897.047 72.5052 894.874 80.144 894.874 89.627H898.874C898.874 80.7115 900.919 74.112 904.735 69.5534L901.668 66.9857ZM894.874 89.627C894.874 99.0651 897.113 106.658 901.869 112.122L904.886 109.495C900.971 104.998 898.874 98.4701 898.874 89.627H894.874ZM901.878 112.132C906.739 117.641 913.643 120.279 922.274 120.279V116.279C914.499 116.279 908.805 113.937 904.877 109.485L901.878 112.132ZM922.274 120.279C929.306 120.279 936.174 118.779 942.863 115.8L941.236 112.146C935.034 114.908 928.719 116.279 922.274 116.279V120.279ZM940.102 114.429L944.409 132.798L948.303 131.885L943.997 113.516L940.102 114.429ZM945.542 130.515C941.346 132.386 936.795 133.839 931.884 134.867L932.703 138.782C937.87 137.7 942.695 136.165 947.171 134.168L945.542 130.515ZM931.884 134.867C926.963 135.897 922.296 136.406 917.88 136.406V140.406C922.604 140.406 927.546 139.861 932.703 138.782L931.884 134.867ZM917.88 136.406C902.649 136.406 891.308 132.32 883.532 124.434L880.684 127.242C889.432 136.114 901.939 140.406 917.88 140.406V136.406ZM883.532 124.434C875.751 116.542 871.716 105.047 871.716 89.627H867.716C867.716 105.731 871.942 118.376 880.684 127.242L883.532 124.434ZM871.716 89.627C871.716 74.6506 875.85 63.3264 883.869 55.3625L881.05 52.5243C872.078 61.4353 867.716 73.9001 867.716 89.627H871.716ZM883.874 55.3576C891.894 47.3373 903.336 43.1992 918.495 43.1992V39.1992C902.599 39.1992 890.018 43.5572 881.046 52.5291L883.874 55.3576ZM977.28 4.72461V2.72461H975.28V4.72461H977.28ZM1004.26 4.72461H1006.26V2.72461H1004.26V4.72461ZM1004.26 29.334V31.334H1006.26V29.334H1004.26ZM977.28 29.334H975.28V31.334H977.28V29.334ZM977.28 43.748V41.748H975.28V43.748H977.28ZM1004.26 43.748H1006.26V41.748H1004.26V43.748ZM1004.26 137V139H1006.26V137H1004.26ZM977.28 137H975.28V139H977.28V137ZM977.28 6.72461H1004.26V2.72461H977.28V6.72461ZM1002.26 4.72461V29.334H1006.26V4.72461H1002.26ZM1004.26 27.334H977.28V31.334H1004.26V27.334ZM979.28 29.334V4.72461H975.28V29.334H979.28ZM977.28 45.748H1004.26V41.748H977.28V45.748ZM1002.26 43.748V137H1006.26V43.748H1002.26ZM1004.26 135H977.28V139H1004.26V135ZM979.28 137V43.748H975.28V137H979.28ZM1121.58 137V139H1123.58V137H1121.58ZM1099.26 137L1097.33 137.531L1097.73 139H1099.26V137ZM1096.18 125.838L1098.11 125.307L1097.17 121.879L1094.73 124.466L1096.18 125.838ZM1083.09 135.242L1083.89 137.074L1083.9 137.069L1083.09 135.242ZM1044.41 130.848L1043.09 132.344L1043.09 132.351L1044.41 130.848ZM1048.28 87.5176L1047.18 85.8499L1047.17 85.8535L1048.28 87.5176ZM1094.6 79.2559V81.2559H1096.6V79.2559H1094.6ZM1094.6 76.8828H1096.6V76.8506L1096.6 76.8183L1094.6 76.8828ZM1061.82 62.3809L1062.24 64.3352L1062.25 64.333L1062.26 64.3307L1061.82 62.3809ZM1047.23 66.9512L1045.32 67.5503L1045.98 69.6678L1048.02 68.7869L1047.23 66.9512ZM1041.51 48.7578L1040.76 46.9045L1039.05 47.5977L1039.61 49.357L1041.51 48.7578ZM1061.11 42.957L1061.5 44.9195L1061.51 44.9179L1061.52 44.9162L1061.11 42.957ZM1067.44 97.9766L1066.39 96.274L1066.38 96.2806L1067.44 97.9766ZM1064.63 117.84L1063.31 119.345L1063.32 119.354L1063.33 119.364L1064.63 117.84ZM1085.63 118.279L1084.78 116.473L1084.76 116.479L1085.63 118.279ZM1094.6 111.424L1096.13 112.707L1096.6 112.15V111.424H1094.6ZM1094.6 94.0215H1096.6V92.0215H1094.6V94.0215ZM1080.36 42.8477C1093.35 42.8477 1102.99 46.0499 1109.59 52.1591L1112.31 49.2237C1104.73 42.2079 1093.97 38.8477 1080.36 38.8477V42.8477ZM1109.59 52.1591C1116.16 58.2403 1119.58 67.1606 1119.58 79.2559H1123.58C1123.58 66.3902 1119.92 56.2675 1112.31 49.2237L1109.59 52.1591ZM1119.58 79.2559V137H1123.58V79.2559H1119.58ZM1121.58 135H1099.26V139H1121.58V135ZM1101.19 136.469L1098.11 125.307L1094.25 126.369L1097.33 137.531L1101.19 136.469ZM1094.73 124.466C1091.03 128.386 1086.88 131.361 1082.27 133.415L1083.9 137.069C1089.02 134.787 1093.6 131.492 1097.64 127.21L1094.73 124.466ZM1082.28 133.411C1077.74 135.404 1072.86 136.406 1067.62 136.406V140.406C1073.39 140.406 1078.82 139.3 1083.89 137.073L1082.28 133.411ZM1067.62 136.406C1058.24 136.406 1051.02 133.983 1045.73 129.344L1043.09 132.351C1049.29 137.79 1057.54 140.406 1067.62 140.406V136.406ZM1045.74 129.351C1040.54 124.739 1037.89 118.544 1037.89 110.545H1033.89C1033.89 119.538 1036.92 126.878 1043.09 132.344L1045.74 129.351ZM1037.89 110.545C1037.89 101.377 1041.68 94.3224 1049.39 89.1817L1047.17 85.8535C1038.36 91.7283 1033.89 100.025 1033.89 110.545H1037.89ZM1049.39 89.1853C1057.25 83.9763 1068.41 81.2559 1083.09 81.2559V77.2559C1067.99 77.2559 1055.95 80.0432 1047.18 85.8499L1049.39 89.1853ZM1083.09 81.2559H1094.6V77.2559H1083.09V81.2559ZM1096.6 79.2559V76.8828H1092.6V79.2559H1096.6ZM1096.6 76.8183C1096.41 71.0041 1094.65 66.3185 1091.02 63.1218C1087.43 59.9551 1082.33 58.5352 1076.05 58.5352V62.5352C1081.79 62.5352 1085.79 63.8398 1088.38 66.1224C1090.93 68.3748 1092.44 71.8631 1092.6 76.9473L1096.6 76.8183ZM1076.05 58.5352C1071.76 58.5352 1066.86 59.1779 1061.37 60.431L1062.26 64.3307C1067.55 63.1228 1072.14 62.5352 1076.05 62.5352V58.5352ZM1061.39 60.4265C1055.89 61.6214 1050.91 63.1814 1046.43 65.1155L1048.02 68.7869C1052.22 66.971 1056.96 65.484 1062.24 64.3352L1061.39 60.4265ZM1049.13 66.352L1043.42 48.1586L1039.61 49.357L1045.32 67.5503L1049.13 66.352ZM1042.27 50.6111C1048.35 48.1415 1054.76 46.2436 1061.5 44.9195L1060.73 40.9946C1053.75 42.3658 1047.1 44.335 1040.76 46.9045L1042.27 50.6111ZM1061.52 44.9162C1068.26 43.5326 1074.54 42.8477 1080.36 42.8477V38.8477C1074.23 38.8477 1067.68 39.5689 1060.71 40.9978L1061.52 44.9162ZM1085.37 92.0215C1077.51 92.0215 1071.11 93.3659 1066.39 96.274L1068.49 99.6791C1072.33 97.3138 1077.89 96.0215 1085.37 96.0215V92.0215ZM1066.38 96.2806C1061.62 99.2557 1059.11 103.536 1059.11 108.963H1063.11C1063.11 105.014 1064.82 101.971 1068.5 99.6726L1066.38 96.2806ZM1059.11 108.963C1059.11 113.256 1060.43 116.825 1063.31 119.345L1065.95 116.335C1064.14 114.753 1063.11 112.404 1063.11 108.963H1059.11ZM1063.33 119.364C1066.16 121.765 1069.99 122.828 1074.56 122.828V118.828C1070.57 118.828 1067.79 117.899 1065.92 116.316L1063.33 119.364ZM1074.56 122.828C1078.73 122.828 1082.72 121.909 1086.51 120.08L1084.76 116.479C1081.52 118.048 1078.12 118.828 1074.56 118.828V122.828ZM1086.49 120.086C1090.31 118.27 1093.54 115.812 1096.13 112.707L1093.07 110.14C1090.86 112.778 1088.11 114.89 1084.78 116.473L1086.49 120.086ZM1096.6 111.424V94.0215H1092.6V111.424H1096.6ZM1094.6 92.0215H1085.37V96.0215H1094.6V92.0215Z" fill="#7D2F31" fill-opacity="0.4"/>
</svg>
