<svg width="44" height="44" viewBox="0 0 44 44" fill="none" xmlns="http://www.w3.org/2000/svg">
<path d="M22.3989 0C10.4701 0 0.798875 9.59563 0.798875 21.4335C0.798875 25.4829 1.93148 29.27 3.89842 32.501L0 44L11.959 40.2009C15.0535 41.8985 18.6125 42.867 22.3989 42.867C34.3293 42.867 44 33.27 44 21.4335C44 9.59563 34.3293 0 22.3989 0Z" fill="white"/>
<path d="M22.4819 2.80164C12.0442 2.80164 3.58183 11.1978 3.58183 21.5559C3.58183 25.0992 4.57286 28.4129 6.29393 31.24L2.88281 41.3016L13.3469 37.9774C16.0546 39.4628 19.1687 40.3103 22.4819 40.3103C32.921 40.3103 41.3828 31.9129 41.3828 21.5559C41.3828 11.1978 32.921 2.80164 22.4819 2.80164ZM31.8802 28.6783C31.4355 29.7806 29.4246 30.7866 28.5373 30.8329C27.6509 30.8799 27.6257 31.5199 22.7932 29.4206C17.9614 27.3208 15.0544 22.2153 14.8252 21.8865C14.5958 21.5589 12.9535 19.2184 13.0421 16.863C13.1313 14.5072 14.4211 13.3958 14.8815 12.9335C15.3413 12.4705 15.8686 12.3876 16.1905 12.3824C16.571 12.3762 16.8175 12.371 17.0991 12.3814C17.3805 12.3921 17.8031 12.3226 18.169 13.2957C18.5348 14.2688 19.4102 16.6604 19.5222 16.9042C19.6341 17.1481 19.7034 17.4306 19.531 17.7438C19.3581 18.0578 19.2695 18.2539 19.0187 18.5244C18.7665 18.7949 18.4881 19.1296 18.2631 19.3364C18.0122 19.5655 17.7501 19.8153 18.0139 20.3049C18.2776 20.7941 19.1872 22.398 20.573 23.7197C22.3541 25.4188 23.8901 25.9823 24.3627 26.2391C24.8367 26.4973 25.1195 26.4686 25.4134 26.1593C25.7059 25.85 26.6714 24.8061 27.0115 24.3401C27.3514 23.8727 27.6699 23.9643 28.1065 24.1399C28.5429 24.3163 30.87 25.5627 31.344 25.8201C31.8175 26.077 32.134 26.2093 32.2472 26.413C32.3604 26.6176 32.3247 27.5759 31.8802 28.6783Z" fill="#FF0000"/>
</svg>
