<svg width="39" height="39" viewBox="0 0 39 39" fill="none" xmlns="http://www.w3.org/2000/svg">
<path d="M33.1524 5.66975C31.3645 3.86521 29.2352 2.43456 26.8888 1.46117C24.5424 0.487781 22.0257 -0.00888292 19.4854 0.000120243C8.84081 0.000120243 0.16575 8.67275 0.156 19.3198C0.156 22.7298 1.04813 26.0473 2.73244 28.9844L0 39.0001L10.2472 36.314C13.0821 37.8567 16.258 38.6654 19.4854 38.6662H19.4951C30.1421 38.6662 38.8147 29.9936 38.8245 19.3368C38.8269 16.797 38.3268 14.2819 37.3529 11.9363C36.379 9.59064 34.953 7.4609 33.1524 5.66975ZM19.4854 35.3951C16.6067 35.396 13.7809 34.6214 11.3051 33.1526L10.7201 32.8016L4.641 34.3957L6.26437 28.4653L5.88412 27.8534C4.2749 25.2949 3.42383 22.3326 3.42956 19.31C3.42956 10.4716 10.6372 3.2615 19.4951 3.2615C21.6054 3.25771 23.6955 3.67167 25.645 4.4795C27.5945 5.28732 29.3648 6.47305 30.8539 7.96831C32.3481 9.45774 33.5327 11.2283 34.3393 13.1778C35.1459 15.1273 35.5585 17.2173 35.5534 19.3271C35.5436 28.1971 28.3359 35.3951 19.4854 35.3951ZM28.2969 23.3684C27.8167 23.1271 25.4451 21.9596 24.999 21.7938C24.5554 21.6354 24.2312 21.5525 23.9143 22.0351C23.5901 22.5153 22.6639 23.6098 22.386 23.9242C22.1081 24.2484 21.8205 24.2849 21.3379 24.0461C20.8577 23.8023 19.3001 23.2953 17.4574 21.6451C16.0192 20.3654 15.0564 18.7811 14.7688 18.3009C14.4909 17.8183 14.742 17.5599 14.9833 17.3186C15.1954 17.1041 15.4635 16.7531 15.7048 16.4752C15.9486 16.1973 16.029 15.9926 16.1874 15.6708C16.3459 15.3442 16.2703 15.0663 16.1509 14.825C16.029 14.5837 15.0662 12.2022 14.6591 11.2419C14.2691 10.2937 13.8718 10.4253 13.5744 10.4131C13.2966 10.3961 12.9724 10.3961 12.6482 10.3961C12.4034 10.4021 12.1625 10.4588 11.9406 10.5624C11.7187 10.666 11.5206 10.8143 11.3587 10.9981C10.9151 11.4807 9.67444 12.6483 9.67444 15.0297C9.67444 17.4112 11.4051 19.7 11.6488 20.0242C11.8877 20.3484 15.0467 25.2209 19.8949 27.3172C21.0405 27.8169 21.9424 28.1118 22.6468 28.3361C23.8046 28.7066 24.8503 28.6505 25.6839 28.5311C26.6102 28.3897 28.5382 27.3611 28.9453 26.2325C29.3451 25.1015 29.3451 24.1363 29.2232 23.9339C29.1037 23.7292 28.7796 23.6098 28.2969 23.3684Z" fill="white"/>
</svg>
